<svg width="2415" height="634" xmlns="http://www.w3.org/2000/svg" xmlns:xlink="http://www.w3.org/1999/xlink" xml:space="preserve" overflow="hidden"><defs><clipPath id="clip0"><rect x="-1" y="0" width="2415" height="634"/></clipPath></defs><g clip-path="url(#clip0)" transform="translate(1 0)"><path d="M1.49987 55.1C1.49987 47.0367 8.03649 40.5001 16.0998 40.5001L282.9 40.5001C290.963 40.5001 297.5 47.0367 297.5 55.1L297.5 171.9C297.5 179.964 290.963 186.5 282.9 186.5L16.0998 186.5C8.03649 186.5 1.49987 179.964 1.49987 171.9Z" stroke="#FFFFFF" stroke-width="4.58333" stroke-miterlimit="8" fill="#4472C4" fill-rule="evenodd"/><text fill="#FFFFFF" font-family="Calibri,Calibri_MSFontService,sans-serif" font-weight="400" font-size="28" transform="matrix(1 0 0 1 16.723 78)">Step 1<tspan font-size="28" x="0" y="42">Deploy Azure Services</tspan></text><path d="M20.5001 182.3C20.5001 161.424 37.4239 144.5 58.3004 144.5L360.7 144.5C381.577 144.5 398.5 161.424 398.5 182.3L398.5 556.7C398.5 577.577 381.576 594.5 360.7 594.5L58.3004 594.5C37.4239 594.5 20.5001 577.576 20.5001 556.7Z" stroke="#4472C4" stroke-width="4.58333" stroke-miterlimit="8" fill="#FFFFFF" fill-rule="evenodd" fill-opacity="0.901961"/><text font-family="Calibri,Calibri_MSFontService,sans-serif" font-weight="400" font-size="28" transform="matrix(1 0 0 1 46.9185 194)">•<tspan font-size="28" x="20.625" y="0">Create AKS Cluster</tspan><tspan font-size="28" x="0" y="35">•</tspan><tspan font-size="28" x="20.625" y="35">Create Azure Container </tspan><tspan font-size="28" x="20.625" y="65">Registry</tspan><tspan font-size="28" x="0" y="101">•</tspan><tspan font-size="28" x="20.625" y="101">Create Azure File Share</tspan><tspan font-size="28" x="0" y="136">•</tspan><tspan font-size="28" x="20.625" y="136">Setup Azure Attestation</tspan><tspan font-size="28" x="0" y="171">•</tspan><tspan font-size="28" x="20.625" y="171">Create VMs for Trusted </tspan><tspan font-size="28" x="20.625" y="201">System and Client System</tspan><tspan font-size="28" x="0" y="237">•</tspan><tspan font-size="28" x="20.625" y="237">Configure network security </tspan><tspan font-size="28" x="20.625" y="267">group</tspan></text><path d="M351.5 65.0161 431.545 64.465 431.443 49.7644 468.448 86.263 431.949 123.268 431.848 108.567 351.804 109.118Z" fill="#B0BCDE" fill-rule="evenodd"/><path d="M517.5 51.0999C517.5 43.0366 524.036 36.4999 532.1 36.4999L797.9 36.4999C805.964 36.4999 812.5 43.0366 812.5 51.0999L812.5 167.9C812.5 175.963 805.964 182.5 797.9 182.5L532.1 182.5C524.036 182.5 517.5 175.963 517.5 167.9Z" stroke="#FFFFFF" stroke-width="4.58333" stroke-miterlimit="8" fill="#4472C4" fill-rule="evenodd"/><text fill="#FFFFFF" font-family="Calibri,Calibri_MSFontService,sans-serif" font-weight="400" font-size="28" transform="matrix(1 0 0 1 532.33 75)">Step 2<tspan font-size="28" x="0" y="42">Prepare Applications</tspan></text><path d="M535.5 172.5C535.5 151.513 552.513 134.5 573.5 134.5L877.5 134.5C898.487 134.5 915.5 151.513 915.5 172.5L915.5 559.5C915.5 580.487 898.487 597.5 877.5 597.5L573.5 597.5C552.513 597.5 535.5 580.487 535.5 559.5Z" stroke="#4472C4" stroke-width="4.58333" stroke-miterlimit="8" fill="#FFFFFF" fill-rule="evenodd" fill-opacity="0.901961"/><text font-family="Calibri,Calibri_MSFontService,sans-serif" font-weight="400" font-size="28" transform="matrix(1 0 0 1 561.739 183)">•<tspan font-size="28" x="20.625" y="0">Download/Build Client </tspan><tspan font-size="28" x="20.625" y="30">container</tspan><tspan font-size="28" x="0" y="65">•</tspan><tspan font-size="28" x="20.625" y="65">Download/Build Secret </tspan><tspan font-size="28" x="20.625" y="96">Provisioning container</tspan><tspan font-size="28" x="0" y="131">•</tspan><tspan font-size="28" x="20.625" y="131">Download/Build ML </tspan><tspan font-size="28" x="20.625" y="161">Serving container</tspan><tspan font-size="28" x="0" y="196">•</tspan><tspan font-size="28" x="20.625" y="196">Start Secret Provisioning </tspan><tspan font-size="28" x="20.625" y="227">container</tspan><tspan font-size="28" x="0" y="262">•</tspan><tspan font-size="28" x="20.625" y="262">Prepare ML Model and </tspan><tspan font-size="28" x="20.625" y="292">SSL/TLS certificates</tspan></text><path d="M867 62.8001 948 62.8001 948 48.0001 985 85.0001 948 122 948 107.2 867 107.2Z" fill="#B0BCDE" fill-rule="evenodd"/><path d="M1033.5 51.0999C1033.5 43.0366 1040.04 36.4999 1048.1 36.4999L1314.9 36.4999C1322.96 36.4999 1329.5 43.0366 1329.5 51.0999L1329.5 167.9C1329.5 175.963 1322.96 182.5 1314.9 182.5L1048.1 182.5C1040.04 182.5 1033.5 175.963 1033.5 167.9Z" stroke="#FFFFFF" stroke-width="4.58333" stroke-miterlimit="8" fill="#4472C4" fill-rule="evenodd"/><text fill="#FFFFFF" font-family="Calibri,Calibri_MSFontService,sans-serif" font-weight="400" font-size="28" transform="matrix(1 0 0 1 1048.77 75)">Step 3<tspan font-size="28" x="0" y="42">Configure AKS</tspan></text><path d="M1075.5 167.8C1075.5 149.409 1090.41 134.5 1108.8 134.5L1375.2 134.5C1393.59 134.5 1408.5 149.409 1408.5 167.8L1408.5 564.2C1408.5 582.591 1393.59 597.5 1375.2 597.5L1108.8 597.5C1090.41 597.5 1075.5 582.591 1075.5 564.2Z" stroke="#4472C4" stroke-width="4.58333" stroke-miterlimit="8" fill="#FFFFFF" fill-rule="evenodd" fill-opacity="0.901961"/><text font-family="Calibri,Calibri_MSFontService,sans-serif" font-weight="400" font-size="28" transform="matrix(1 0 0 1 1099.97 182)">•<tspan font-size="28" x="20.625" y="0">Deploy Flannel</tspan><tspan font-size="28" x="0" y="35">•</tspan><tspan font-size="28" x="20.625" y="35">Deploy Nginx</tspan><tspan font-size="28" x="0" y="70">•</tspan><tspan font-size="28" x="20.625" y="70">Deploy custom </tspan><tspan font-size="28" x="20.625" y="101">CoreDNS config</tspan></text><path d="M1378 62.8001 1446 62.8001 1446 48.0001 1483 85.0001 1446 122 1446 107.2 1378 107.2Z" fill="#B0BCDE" fill-rule="evenodd"/><path d="M1527.5 51.0999C1527.5 43.0366 1534.04 36.4999 1542.1 36.4999L1807.9 36.4999C1815.96 36.4999 1822.5 43.0366 1822.5 51.0999L1822.5 167.9C1822.5 175.963 1815.96 182.5 1807.9 182.5L1542.1 182.5C1534.04 182.5 1527.5 175.963 1527.5 167.9Z" stroke="#FFFFFF" stroke-width="4.58333" stroke-miterlimit="8" fill="#4472C4" fill-rule="evenodd"/><text fill="#FFFFFF" font-family="Calibri,Calibri_MSFontService,sans-serif" font-weight="400" font-size="28" transform="matrix(1 0 0 1 1542.07 75)">Step 4<tspan font-size="28" x="0" y="42">Deploy ML Serving</tspan></text><path d="M1558.5 169.8C1558.5 150.304 1574.3 134.5 1593.8 134.5L1876.2 134.5C1895.7 134.5 1911.5 150.304 1911.5 169.8L1911.5 562.2C1911.5 581.695 1895.7 597.5 1876.2 597.5L1593.8 597.5C1574.3 597.5 1558.5 581.695 1558.5 562.2Z" stroke="#4472C4" stroke-width="4.58333" stroke-miterlimit="8" fill="#FFFFFF" fill-rule="evenodd" fill-opacity="0.901961"/><text font-family="Calibri,Calibri_MSFontService,sans-serif" font-weight="400" font-size="28" transform="matrix(1 0 0 1 1583.84 182)">•<tspan font-size="28" x="20.625" y="0">Deploy and scale ML </tspan><tspan font-size="28" x="20.625" y="30">Serving service</tspan></text><path d="M1874 62.8001 1947 62.8001 1947 48.0001 1984 85.0001 1947 122 1947 107.2 1874 107.2Z" fill="#B0BCDE" fill-rule="evenodd"/><path d="M2030.5 51.0999C2030.5 43.0366 2037.04 36.4999 2045.1 36.4999L2310.9 36.4999C2318.96 36.4999 2325.5 43.0366 2325.5 51.0999L2325.5 167.9C2325.5 175.963 2318.96 182.5 2310.9 182.5L2045.1 182.5C2037.04 182.5 2030.5 175.963 2030.5 167.9Z" stroke="#FFFFFF" stroke-width="4.58333" stroke-miterlimit="8" fill="#4472C4" fill-rule="evenodd"/><text fill="#FFFFFF" font-family="Calibri,Calibri_MSFontService,sans-serif" font-weight="400" font-size="28" transform="matrix(1 0 0 1 2045.38 75)">Step 5<tspan font-size="28" x="0" y="42">Inference Request</tspan></text><path d="M2065.5 169.1C2065.5 149.991 2080.99 134.5 2100.1 134.5L2376.9 134.5C2396.01 134.5 2411.5 149.991 2411.5 169.1L2411.5 562.9C2411.5 582.009 2396.01 597.5 2376.9 597.5L2100.1 597.5C2080.99 597.5 2065.5 582.009 2065.5 562.9Z" stroke="#4472C4" stroke-width="4.58333" stroke-miterlimit="8" fill="#FFFFFF" fill-rule="evenodd" fill-opacity="0.901961"/><text font-family="Calibri,Calibri_MSFontService,sans-serif" font-weight="400" font-size="28" transform="matrix(1 0 0 1 2090.77 182)">•<tspan font-size="28" x="20.625" y="0">Start Client container</tspan><tspan font-size="28" x="0" y="35">•</tspan><tspan font-size="28" x="20.625" y="35">Send inference request</tspan><tspan font-size="28" x="0" y="70">•</tspan><tspan font-size="28" x="20.625" y="70">Receive inference </tspan><tspan font-size="28" x="20.625" y="101">response</tspan></text></g></svg>